# xmcd
#
# Track frame offsets: 
#        150
#        12600
#        25237
#        43732
#        61208
#        75593
#        92352
#        106742
#        118794
#        133949
#        148389
#        162840
#
# Disc length: 2397 seconds
#
# Revision: 0
# Processed by: cddbd v1.5.2PL0 Copyright (c) Steve Scherf et al.
# Submitted via: ExactAudioCopyFreeDBPlugin 1.0
#
DISCID=9f095b0c
DTITLE=The Purple Hulls - CloseTo Home
DYEAR=2012
DGENRE=Bluegrass
TTITLE0=What a Friend We Have In Jesus
TTITLE1=No Power In The Water
TTITLE2=The Lord Came Unto Me
TTITLE3=I Just Wanted You To Know
TTITLE4=Grandma's Garden
TTITLE5=That Special Night
TTITLE6=Get In The Boat
TTITLE7=Higher Ground
TTITLE8=How Deep The Father's Love
TTITLE9=Be Thou My Vision
TTITLE10=Old Rugged Cross
TTITLE11=Close To Home
EXTD=
EXTT0=
EXTT1=
EXTT2=
EXTT3=
EXTT4=
EXTT5=
EXTT6=
EXTT7=
EXTT8=
EXTT9=
EXTT10=
EXTT11=
PLAYORDER=
